<svg xmlns="http://www.w3.org/2000/svg" x="0px" y="0px" fill="#558063" viewBox="0 0 512 375" style="enable-background:new 0 0 512 375"><path d="M418.5 0H25.1C11.3 0 0 11.2 0 25.1v256.4c0 13.9 11.3 25.1 25.1 25.1h248c4.4 0 8.1-3.5 8.1-7.9s-3.5-8.1-7.9-8.1H25.1c-5 0-9.1-4.1-9.1-9.1V25.1c0-5 4.1-9.1 9.1-9.1h393.4c5 0 9.1 4.1 9.1 9.1v111.1c0 4.4 3.6 8 8 8s8-3.6 8-8V25.1c0-13.9-11.3-25.1-25.1-25.1zm-17.1 153.8c-61.1 0-110.6 49.6-110.5 110.6S340.4 375 401.5 375 512 325.5 512 264.4c-.1-61-49.6-110.5-110.6-110.6zm0 205.2c-52.2 0-94.5-42.4-94.5-94.6s42.4-94.5 94.6-94.5 94.5 42.4 94.5 94.6c-.1 52.1-42.4 94.4-94.6 94.5zM136.3 59.8H67.9c-9.1 0-16.6 7.4-16.6 16.6v51.3c0 9.1 7.4 16.6 16.6 16.6h68.4c9.1 0 16.6-7.4 16.6-16.6V76.4c-.1-9.2-7.5-16.6-16.6-16.6zm-50.8 68.4H67.9c-.3 0-.5-.2-.5-.5V76.4c0-.3.2-.5.5-.5h17.6v52.3zm51.3-.5c0 .3-.2.5-.5.5h-34.7V110h9.1c4.4 0 8-3.6 8-8s-3.6-8-8-8h-9.1V75.9h34.7c.3 0 .5.2.5.5v51.3zm209-76.4c-9.1 0-18 2.7-25.6 7.7-21.4-14.2-50.2-8.4-64.4 13s-8.4 50.2 13 64.4c15.6 10.3 35.8 10.3 51.4 0 21.4 14.2 50.2 8.3 64.4-13.1 14.2-21.4 8.3-50.2-13.1-64.4-7.6-4.9-16.6-7.6-25.7-7.6zM308.1 125c-15 7.5-33.3 1.4-40.9-13.6s-1.4-33.3 13.6-40.9a30.5 30.5 0 0 1 27.3 0 46.378 46.378 0 0 0 0 54.5zm37.7 3.2c-4.7 0-9.4-1.1-13.6-3.2 5.8-7.9 8.8-17.4 8.8-27.2 0-4.4-3.6-8-8-8s-8 3.6-8 8c0 5.8-1.7 11.5-4.8 16.4-9.1-14.2-4.9-33 9.3-42.1 14.2-9.1 33-4.9 42.1 9.3s4.9 33-9.3 42.1c-5 3-10.7 4.7-16.5 4.7zM127.7 188H59.3c-4.4 0-8.1 3.5-8.1 7.9s3.5 8.1 7.9 8.1h68.6c4.4 0 8.1-3.5 8.1-7.9s-3.5-8.1-7.9-8.1h-.2zm136.9 51.3H59.3c-4.4 0-8 3.6-8 8s3.6 8 8 8h205.2c4.4 0 8-3.6 8-8 .1-4.4-3.5-8-7.9-8zM230.4 188H162c-4.4 0-8.1 3.5-8.1 7.9s3.5 8.1 7.9 8.1h68.6c4.4 0 8.1-3.5 8.1-7.9s-3.5-8.1-7.9-8.1h-.2zm51.3 0h-17.1c-4.4 0-8.1 3.5-8.1 7.9s3.5 8.1 7.9 8.1h17.3c4.4 0 8.1-3.5 8.1-7.9s-3.5-8.1-7.9-8.1h-.2zm185.2 36.6c-3.1-3.1-8.2-3.1-11.3 0l-71.3 71.3-37.1-37.1c-3.2-3.1-8.2-3.1-11.3.1-3.1 3.1-3.1 8.1 0 11.2l42.8 42.7c3.1 3.1 8.2 3.1 11.3 0l77-76.9c3-3.1 3-8.2-.1-11.3z"></path></svg>