<svg xmlns="http://www.w3.org/2000/svg" x="0px" y="0px" fill="#558063" viewBox="0 0 40 40" style="enable-background:new 0 0 40 40"><path d="M32.3 12.1L20.9 5.8c-.6-.3-1.3-.3-1.8 0L7.7 12.1c-.6.3-1 1-1 1.7v12.5c0 .7.4 1.3 1 1.7l11.4 6.3c.6.3 1.3.3 1.8 0L32.3 28c.6-.3 1-1 1-1.7V13.7c0-.7-.4-1.3-1-1.6zm-12.5-5c.1-.1.2-.1.3 0l4.5 2.5-11 6.1L9 13.1l10.8-6zm-.6 25.4l-10.8-6c-.1-.1-.2-.2-.2-.3V14.4l5.1 2.9 5.9 3.3v11.9zm-3.8-15.9l11-6.1 4.7 2.6-11 6.1-4.7-2.6zm16.3 9.7c0 .1-.1.2-.2.3l-10.8 6v-12l10.9-6.1.1 11.8zm-17.2-6.4l-4.1-2.3c-.2-.1-.5-.1-.8 0-.2.1-.4.4-.4.7v3.3c0 .3.2.5.4.7l4.1 2.3c.1.1.2.1.4.1.1 0 .3 0 .4-.1.2-.1.4-.4.4-.7v-3.3c0-.3-.1-.6-.4-.7zm-1.1 2.6l-2.6-1.4v-1.5l2.6 1.4v1.5zm4.4 5.6L15.7 27c-.4-.2-.9-.1-1.1.3s-.1.9.3 1.1l2.1 1.1c.1.1.2.1.4.1.4 0 .8-.4.8-.8 0-.3-.2-.5-.4-.7zM36.4 8.5L37.8 7c.3-.3.3-.8 0-1.1-.1-.1-.3-.2-.6-.2h-3.9c-.4 0-.8.3-.8.8v3.9c0 .3.2.6.5.7.1 0 .2.1.3.1.2 0 .4-.1.6-.2l1.3-1.3c5.7 8.4 3.6 19.9-4.8 25.6-5.2 3.6-11.9 4.2-17.7 1.7-.4-.2-.9 0-1 .4-.2.4 0 .8.4 1 2.5 1.1 5.2 1.6 7.9 1.6 11 0 20-8.9 20-20 0-4.1-1.3-8.1-3.6-11.5zm-26 27.3c-.4-.3-.8-.2-1.1.2-.2.4-.1.8.3 1.1.1.1.3.1.4.1.3 0 .5-.1.7-.4.2-.3.1-.8-.3-1zM30.5 3c-.4-.2-.9-.1-1.1.3-.2.4-.1.8.3 1 .4.2.8.1 1.1-.3s.1-.8-.3-1zm-2.6-1.4C17.7-2.7 6 2 1.6 12.1c-2.7 6.4-2 13.7 2 19.4L2.2 33c-.3.3-.3.8 0 1.1.1.1.3.2.6.2h3.9c.4 0 .8-.3.8-.8v-3.9c0-.4-.3-.8-.8-.8-.2 0-.4.1-.6.2l-1.3 1.3C-.2 23 .8 13.1 7 6.9 12.3 1.5 20.4 0 27.3 3c.4.2.9 0 1-.4.2-.3 0-.8-.4-1z"></path></svg>