<svg xmlns="http://www.w3.org/2000/svg" x="0px" y="0px" fill="#558063" viewBox="0 0 312 459.9" style="enable-background:new 0 0 312 459.9"><path d="M290.9 350.6l-77.6-32.3c-3.4-1.4-5.7-4.8-5.7-8.5v-16.5l14.5-8.1c12.4-6.9 20.6-19.5 21.9-33.7v-.4h7.6c14.1 0 25.5-11.4 25.5-25.5v-15.7c2.3-5.5 8.7-23.2 8.7-47.6 0-33.6-13.3-65.8-37.2-89.5-9.1-9.1-19.4-16.8-30.8-22.8-.4-27.6-28-50-61.9-50s-61.6 22.4-62 50c-11.3 6-21.7 13.7-30.8 22.8-23.7 23.7-37.1 55.9-37 89.5 0 24.4 6.4 42.1 8.7 47.6v15.7c0 14.1 11.4 25.5 25.5 25.6h7.6v.4c1.3 14.2 9.5 26.8 21.9 33.7l14.5 8.1v16.5c0 3.7-2.2 7.1-5.7 8.5L21 350.7c-12.7 5.2-21 17.6-21 31.5v52.2c0 14.1 11.4 25.5 25.5 25.6h260.9c14.1 0 25.5-11.4 25.5-25.6v-52.2c.1-13.9-8.2-26.3-21-31.6zm-30-125c0 5.1-4.1 9.2-9.2 9.2h-6.1l3.3-35.9h2.8c5.1 0 9.2 4.1 9.2 9.2v17.5zM156 16.3c21.4 0 39.3 11.1 44.3 25.9-28.7-9.9-59.9-9.9-88.6 0 5-14.8 22.9-25.9 44.3-25.9zM60.3 234.8c-5.1 0-9.2-4.1-9.2-9.2v-17.4c0-5.1 4.1-9.2 9.2-9.2h2.8l3.3 35.9-6.1-.1zm37.5 36.1c-7.7-4.3-12.8-12.1-13.6-20.9L78 181.7c17.2-.2 34.4-2 51.2-5.5 44.7-9.3 81.2-29.5 105.5-58.5 2.9-3.5 2.4-8.6-1-11.5-3.5-2.9-8.6-2.4-11.5 1-53 63.3-151.3 58.1-152.7 58-4.5-.3-8.3 3-8.7 7.5v1.4l.8 8.5h-1.3c-5.5 0-10.8 1.8-15.2 5.1-1.8-8.4-2.7-16.9-2.7-25.4 0-29.3 11.6-57.4 32.4-78C96.1 62.9 125 51.1 156 51.1s59.9 11.8 81.2 33.2c20.8 20.7 32.4 48.7 32.4 78 0 8.5-.9 17.1-2.7 25.4-4.4-3.3-9.7-5.1-15.2-5.1h-1.4l.8-8.5c.2-2.4-.6-4.8-2.4-6.5l-17.4-17.4c-3.3-3.1-8.4-2.9-11.5.4-2.9 3.1-2.9 8 0 11.2l14.7 14.7-5.8 63.9C222 246.3 200.9 261 156 261c-4.5.1-8.1 3.7-8.1 8.2 0 4.4 3.6 8 8.1 8.1 31.2 0 52.6-6.5 66.4-13.4-2.2 2.9-5 5.3-8.2 7.1l-45.3 25.2c-8 4.5-17.8 4.5-25.9 0l-45.2-25.3zm7.1 62.4c9.5-4 15.7-13.3 15.7-23.6v-7.4l14.5 8c13 7.3 28.8 7.3 41.7 0l14.5-8v7.4c0 10.3 6.2 19.6 15.7 23.6l8.6 3.6c-15.3 17.8-30.1 26.6-40.1 30.9-11.1 4.8-18.7 5.2-19.5 5.2s-8.4-.4-19.5-5.2c-10-4.3-24.8-13.1-40.1-30.9l8.5-3.6zM52.2 443.6H25.5c-5.1 0-9.2-4.1-9.2-9.2v-52.2c0-2.2.4-4.4 1.2-6.4l28 22.4c4.3 3.4 6.7 8.6 6.7 14v31.4zm191.3-31.5v31.5h-175v-31.5c0-10.4-4.7-20.3-12.9-26.7l-25.9-20.7 50.9-21.2c26.9 33.2 54 42.4 67.2 44.9V416c0 4.5 3.7 8.2 8.2 8.2s8.2-3.7 8.2-8.2v-27.6c13.2-2.5 40.3-11.7 67.2-44.9l50.9 21.2-25.9 20.7c-8.2 6.4-12.9 16.3-12.9 26.7zm52.2 22.3c0 5.1-4.1 9.2-9.2 9.2h-26.6v-31.5c0-5.5 2.5-10.6 6.7-14l28-22.4c.8 2.1 1.2 4.2 1.2 6.4l-.1 52.3zM145.9 204.7c-3.9-8.1-13.3-13.3-23.9-13.3s-20 5.2-23.9 13.3c-2 4-.3 8.9 3.7 10.9s8.9.3 10.9-3.7c0 0 0-.1.1-.1 1-2 4.5-4.1 9.2-4.1s8.3 2.1 9.2 4.1c1.9 4.1 6.8 5.8 10.8 3.9 4.1-1.9 5.8-6.8 3.9-10.8.1-.1.1-.2 0-.2zm68 0c-3.9-8.1-13.3-13.3-23.9-13.3s-20 5.2-23.9 13.3c-2 4-.3 8.9 3.7 10.9s8.9.3 10.9-3.7c0 0 0-.1.1-.1 1-2 4.5-4.1 9.2-4.1s8.3 2.1 9.2 4.1c1.9 4.1 6.8 5.8 10.9 3.9 4.1-1.9 5.8-6.8 3.8-11z"></path></svg>