<svg xmlns="http://www.w3.org/2000/svg" x="0px" y="0px" fill="#558063" viewBox="0 0 511.6 324" style="enable-background:new 0 0 511.6 324"><path d="M503.3 149.6c-5.3-6.3-12.7-10.6-20.9-12l-3.9-53.1c3.9 0 7.1-2.8 7.8-6.6l1.5-8.6c1.7-8.8-.5-17.9-6.2-24.8-5.5-6.6-13.6-10.2-22.8-10.2H400l2.9-16.3c.8-4.5-.3-9.1-3.2-12.6C396.8 2 392.5 0 388 .1H98.4c-8.8.2-16.3 6.5-17.9 15.2L54.9 160.6c-.8 4.3 2 8.5 6.4 9.4s8.5-2 9.4-6.4v-.2L96.3 18c.3-1 1.1-1.8 2.2-1.9H387l-25.5 144.6c-.8 4.4 2.1 8.5 6.5 9.3s8.5-2.1 9.3-6.5l1.8-10.5h95.8c6.6 0 12.3 2.5 16.1 7 2.6 3.2 4.2 7.1 4.5 11.2h-26.6c-3.9 0-7.2 2.8-7.9 6.6l-3 17.1c-1.3 6.6.4 13.5 4.7 18.7 4.3 5 10.6 7.9 17.3 7.8h7.5l-6.2 35.3h-21.1c-1.4-7-4.5-13.6-9.1-19.1-8.2-9.8-20.3-15.2-33.9-15.2-22 0-43.2 14.4-53.1 34.2h-3.2l10.4-59c.8-4.4-2.1-8.5-6.5-9.3s-8.5 2.1-9.3 6.5l-10.9 61.8H196.3c-1.4-7-4.5-13.6-9.1-19.1-8.2-9.8-20.3-15.2-33.9-15.2-22 0-43.2 14.4-53.1 34.2H54.3l3.2-18.2h36c4.4 0 8-3.6 8-8s-3.6-8-8-8H8c-4.4 0-8 3.6-8 8s3.6 8 8 8h33.2l-2.9 16.3c-.8 4.5.3 9.1 3.2 12.6 2.9 3.4 7.2 5.4 11.7 5.3H95c-2.2 13.6 1.1 26.4 9.3 36.2 8.2 9.8 20.2 15.2 33.9 15.2 27.3 0 53.3-22.2 58.1-49.4.1-.6.2-1.3.3-1.9h162.2c-2.2 13.6 1.1 26.4 9.3 36.2 8.2 9.8 20.3 15.2 33.9 15.2 27.3 0 53.3-22.2 58.1-49.4.1-.6.2-1.3.3-1.9H488c3.9 0 7.2-2.8 7.9-6.6l15.1-85.5c2-11.7-.7-22.7-7.7-31zm-121.4-12.7l9.2-52.4h71.3l3.9 52.4h-84.4zM472 66.5l-.3 1.9H394l3.2-18.2h61.6c4-.2 7.9 1.5 10.5 4.5 2.6 3.1 3.5 7.3 2.7 11.8zM180.6 271.8c-3.5 19.9-22.5 36.1-42.4 36.1-8.9 0-16.6-3.3-21.7-9.4-5.2-6.3-7.2-14.8-5.6-23.9 3.5-19.9 22.5-36.1 42.4-36.1 8.9 0 16.6 3.4 21.7 9.4 5.2 6.2 7.2 14.7 5.6 23.9zm263.8 0c-3.5 19.9-22.5 36.1-42.4 36.1-8.9 0-16.6-3.3-21.7-9.4-5.2-6.3-7.2-14.8-5.6-23.9 3.5-19.9 22.5-36.1 42.4-36.1 8.9 0 16.6 3.4 21.7 9.4 5.2 6.2 7.2 14.7 5.6 23.9zm45.9-66.5h-10.4c-1.9.1-3.7-.6-5-2.1-1.2-1.6-1.7-3.7-1.2-5.6l1.8-10.5h17.9l-3.1 18.2zM158.9 262c-2.9-3.4-7.2-5.4-11.7-5.3-8.8.2-16.3 6.5-17.9 15.2-.8 4.5.3 9.1 3.2 12.6 2.9 3.4 7.2 5.4 11.7 5.3 8.8-.2 16.3-6.5 17.9-15.2.9-4.5-.3-9.1-3.2-12.6zm263.9 0c-2.9-3.4-7.2-5.4-11.7-5.3-8.8.2-16.3 6.5-17.9 15.2-.8 4.5.3 9.1 3.2 12.6 2.9 3.4 7.2 5.4 11.7 5.3 8.8-.2 16.3-6.5 17.9-15.2.9-4.5-.3-9.1-3.2-12.6zm-99.7-39.6H221.6c-4.4 0-8 3.6-8 8s3.6 8 8 8h101.5c4.4 0 8-3.6 8-8s-3.5-8-8-8zm-144.2-34.2H31.1c-4.4 0-8 3.7-7.9 8.1 0 4.4 3.6 7.9 7.9 7.9h147.8c4.4 0 8-3.7 7.9-8.1 0-4.3-3.5-7.9-7.9-7.9z"></path></svg>