<svg xmlns="http://www.w3.org/2000/svg" x="0px" y="0px" fill="#558063" viewBox="0 0 34 40" style="enable-background:new 0 0 34 40"><path d="M33.4 6.9c-5.6-1.6-11-3.8-15.9-6.8-.3-.2-.6-.2-.9 0-5 3-10.4 5.3-15.9 6.8-.4.1-.7.4-.7.8v8.6c-.1 6.8 2.6 13.3 7.5 18.1 3.7 3.6 8 5.6 9.5 5.6s5.8-2 9.5-5.6c4.9-4.7 7.6-11.3 7.5-18.1V7.7c0-.4-.3-.7-.6-.8zm-1.1 9.4c.1 6.3-2.4 12.4-7 16.9-3.6 3.6-7.5 5.1-8.3 5.1s-4.7-1.6-8.3-5.1c-4.5-4.4-7.1-10.5-7-16.9v-8C7 6.8 12.2 4.6 17 1.8c4.8 2.8 10 5 15.3 6.5v8zm-21 2c-1.1-1.1-2.8-1.1-3.9 0s-1.1 2.8 0 3.9l4.9 5c1.1 1.1 2.8 1.1 3.9 0l10.3-10.4c1.1-1.1 1.1-2.8 0-3.9s-2.8-1.1-3.8 0l-8.4 8.4-3-3zM23.9 14c.4-.4 1.1-.4 1.5 0s.4 1.1 0 1.5L15 25.9c-.2.2-.5.3-.7.3-.3 0-.6-.1-.8-.3l-4.9-5c-.4-.4-.4-1.1 0-1.5s1.1-.4 1.5 0l3.6 3.6c.3.3.8.3 1.2 0l9-9z"></path></svg>